HIERARCHY
ROOT Pelvis
{
	OFFSET 0.000000 0.000000 0.000000
	CHANNELS 6 Xposition Yposition Zposition Zrotation Yrotation Xrotation 
	JOINT Left_hip
	{
		OFFSET 0.067986 -0.089946 -0.007639
		CHANNELS 3 Zrotation Yrotation Xrotation
		JOINT Left_knee
		{
			OFFSET 0.036308 -0.388288 -0.004016
			CHANNELS 3 Zrotation Yrotation Xrotation
			JOINT Left_ankle
			{
				OFFSET -0.012264 -0.413250 -0.042878
				CHANNELS 3 Zrotation Yrotation Xrotation
				JOINT Left_foot
				{
					OFFSET 0.024043 -0.058563 0.118570
					CHANNELS 3 Zrotation Yrotation Xrotation
					End Site
					{
						OFFSET 0.000000 0.000000 0.000000
					}
				}
			}
		}
	}
	JOINT Right_hip
	{
		OFFSET -0.065648 -0.089374 -0.003858
		CHANNELS 3 Zrotation Yrotation Xrotation
		JOINT Right_knee
		{
			OFFSET -0.042132 -0.395021 -0.006361
			CHANNELS 3 Zrotation Yrotation Xrotation
			JOINT Right_ankle
			{
				OFFSET 0.014805 -0.413264 -0.041054
				CHANNELS 3 Zrotation Yrotation Xrotation
				JOINT Right_foot
				{
					OFFSET -0.021758 -0.049013 0.121832
					CHANNELS 3 Zrotation Yrotation Xrotation
					End Site
					{
						OFFSET 0.000000 0.000000 0.000000
					}
				}
			}
		}
	}
	JOINT Spine1
	{
		OFFSET -0.002755 0.104406 -0.022277
		CHANNELS 3 Zrotation Yrotation Xrotation
		JOINT Spine2
		{
			OFFSET 0.004136 0.129393 -0.002186
			CHANNELS 3 Zrotation Yrotation Xrotation
			JOINT Spine3
			{
				OFFSET 0.001906 0.049304 0.025578
				CHANNELS 3 Zrotation Yrotation Xrotation
				JOINT Neck
				{
					OFFSET -0.004620 0.210958 -0.044063
					CHANNELS 3 Zrotation Yrotation Xrotation
					JOINT Head
					{
						OFFSET 0.003833 0.067393 0.052435
						CHANNELS 3 Zrotation Yrotation Xrotation
						End Site
						{
							OFFSET 0.000000 0.000000 0.000000
						}
					}
				}
				JOINT Left_collar
				{
					OFFSET 0.070771 0.116689 -0.037192
					CHANNELS 3 Zrotation Yrotation Xrotation
					JOINT Left_shoulder
					{
						OFFSET 0.080652 0.031596 -0.005617
						CHANNELS 3 Zrotation Yrotation Xrotation
						JOINT Left_elbow
						{
							OFFSET 0.262654 -0.015020 -0.027939
							CHANNELS 3 Zrotation Yrotation Xrotation
							JOINT Left_wrist
							{
								OFFSET 0.250438 0.010062 -0.000990
								CHANNELS 3 Zrotation Yrotation Xrotation
								JOINT Left_palm
								{
									OFFSET 0.081198 -0.010037 -0.013706
									CHANNELS 3 Zrotation Yrotation Xrotation
									End Site
									{
										OFFSET 0.000000 0.000000 0.000000
									}
								}
							}
						}
					}
				}
				JOINT Right_collar
				{
					OFFSET -0.072972 0.115556 -0.040762
					CHANNELS 3 Zrotation Yrotation Xrotation
					JOINT Right_shoulder
					{
						OFFSET -0.082917 0.031841 -0.006673
						CHANNELS 3 Zrotation Yrotation Xrotation
						JOINT Right_elbow
						{
							OFFSET -0.252882 -0.013790 -0.020410
							CHANNELS 3 Zrotation Yrotation Xrotation
							JOINT Right_wrist
							{
								OFFSET -0.255570 0.009163 -0.005138
								CHANNELS 3 Zrotation Yrotation Xrotation
								JOINT Right_palm
								{
									OFFSET -0.080804 -0.007282 -0.010415
									CHANNELS 3 Zrotation Yrotation Xrotation
									End Site
									{
										OFFSET 0.000000 0.000000 0.000000
									}
								}
							}
						}
					}
				}
			}
		}
	}
}
MOTION
Frames: 8
Frame Time: 0.100000
-0.181141 -0.040071 0.124488 170.287144 19.760934 -4.042181 8.116673 -1.873203 -13.704270 -5.898523 -6.598926 -0.625502 -10.846452 6.864587 -4.092437 19.759267 12.862569 -2.477443 -8.131684 -4.620986 -5.281793 7.305635 7.973535 8.804289 15.054422 -5.874254 0.017722 -11.472460 5.126171 -0.006460 4.587558 3.639926 10.474331 -1.983509 4.085209 5.731142 3.032998 3.984022 0.511756 15.870652 -4.031236 -8.355716 7.948401 2.492910 -10.084425 -7.942749 -2.159829 -6.209158 -30.686374 -6.277714 16.749507 154.828067 -60.514777 -153.056422 8.708482 -15.591451 -53.533577 -2.524365 2.522869 1.160715 -17.597969 19.459220 -13.548896 -9.040721 39.299571 -9.244395 -165.857150 68.353258 -169.629654 -3.367574 10.731833 -33.204291 0.620764 1.222256 0.058170 
-0.182471 -0.039048 0.121145 170.111975 19.620909 -3.359141 8.292708 -1.972579 -14.794619 -6.025839 -6.258373 -0.500746 -10.748518 6.874379 -3.968363 19.781109 12.838628 -2.472706 -8.013979 -4.620391 -6.150470 7.200033 7.792831 8.518584 14.981042 -5.705083 0.048153 -11.378784 4.701357 0.142902 4.490676 3.706425 11.123230 -2.088277 4.302794 5.927757 3.047537 4.063856 0.691870 15.688286 -4.177594 -7.906761 7.973647 2.733938 -10.201669 -8.095790 -1.238136 -6.103551 -31.053219 -5.430885 16.974468 157.056634 -57.644560 -153.902671 9.516944 -15.166991 -53.806941 -2.910289 2.368066 0.947604 -17.687814 18.973335 -13.284514 -9.551144 38.830137 -10.021664 -164.281755 66.647440 -167.204472 -4.146175 10.647786 -32.428800 1.051715 1.348177 -0.224066 
-0.183006 -0.037959 0.118891 169.967509 19.619395 -3.506021 8.315190 -1.903613 -14.893907 -6.111340 -6.389160 -0.478308 -10.511197 6.825155 -4.020776 19.309111 12.766321 -2.328417 -7.884591 -4.669255 -6.084723 7.054435 7.836812 8.393166 14.937972 -5.839706 -0.131588 -11.310090 4.935860 0.111650 4.308737 3.749649 11.471945 -2.197574 4.214990 6.188993 3.014764 4.043295 0.845586 15.237216 -3.948606 -7.662479 8.013040 2.750782 -10.188433 -7.894484 -2.002266 -6.207223 -30.843672 -6.336879 16.490068 154.997469 -59.571141 -151.808021 9.563660 -14.714719 -52.507320 -2.615769 2.321978 1.095202 -17.357747 19.489127 -13.070589 -8.977081 38.475523 -10.101832 -161.850422 71.006463 -165.313657 -3.897832 10.289656 -31.130030 0.959570 1.363967 -0.298889 
-0.183304 -0.037475 0.117930 169.946507 19.185175 -4.014165 8.268141 -1.708033 -14.372415 -6.094976 -6.493320 -0.433336 -10.082626 6.868331 -4.254084 18.467190 12.466910 -1.925945 -7.794797 -4.693822 -5.829803 6.972764 7.908136 8.717444 14.807804 -5.758517 -0.204513 -11.046943 5.306376 0.099480 4.081771 3.774652 11.527291 -2.302088 4.057573 6.080325 2.900901 4.066612 0.606690 14.301523 -3.214146 -8.267348 7.547700 2.354430 -10.117245 -7.641761 -3.791194 -6.458488 -30.331106 -7.983833 15.772559 149.580146 -64.611994 -146.727150 8.800286 -14.373896 -49.666804 -2.188573 2.283918 1.171636 -16.368865 21.177416 -12.976504 -7.806367 39.230462 -10.154696 -154.881559 79.554203 -159.274634 -2.958297 9.570838 -28.535218 0.791603 1.393127 -0.418171 
-0.184385 -0.037338 0.118952 170.063630 18.790572 -5.140879 8.038007 -1.507984 -13.018410 -6.095766 -6.837080 -0.270071 -9.346139 6.830923 -4.714863 17.095326 12.221838 -1.478503 -7.844257 -4.760320 -4.767419 6.784404 8.107638 9.191184 14.628057 -5.585391 -0.327027 -10.611905 5.747377 -0.044518 3.864084 3.779648 11.202206 -2.418822 3.766633 5.784120 2.765187 4.053648 0.169954 13.270788 -2.232698 -9.325198 7.005399 2.083661 -10.198377 -7.372675 -6.439527 -6.867544 -30.148849 -10.710249 14.910204 137.249528 -71.124115 -135.083177 7.716295 -13.857187 -46.561661 -1.456973 2.272663 1.674614 -15.105566 23.493569 -12.897771 -5.729747 40.424169 -9.903509 -41.808381 86.682391 -47.815888 -1.749353 8.400615 -25.515420 0.433341 1.428060 -0.456798 
-0.185527 -0.036914 0.120246 170.410154 18.488171 -6.452813 7.597123 -1.230329 -11.361051 -6.160250 -7.156766 -0.066689 -8.374589 6.621995 -5.153547 15.229075 12.067832 -1.204635 -8.036165 -4.933215 -3.459571 6.531839 8.213411 9.835430 14.455860 -5.568349 -0.844241 -10.441857 6.503894 -0.233245 3.747770 3.886891 10.644230 -2.725131 3.536129 5.280340 2.439047 4.141607 -0.431365 11.759379 -1.297808 -11.171582 6.365432 1.607451 -10.367130 -7.322863 -9.762255 -7.565298 -29.412762 -14.308951 13.511718 107.873346 -76.476455 -106.918723 5.955286 -13.652794 -42.459620 -0.688395 2.277593 2.442079 -13.358884 25.967543 -12.492177 -3.220744 40.650644 -9.004628 2.105925 75.185460 -5.718262 0.126417 7.529567 -22.373896 -0.043281 1.467260 -0.292738 
-0.184641 -0.034891 0.121349 170.998254 18.397284 -7.621592 7.158798 -0.979206 -9.727781 -6.383772 -7.532514 -0.125930 -7.471175 6.486173 -5.866905 13.413027 11.396148 -0.540487 -8.025631 -5.125839 -1.655199 5.919308 8.166629 9.643544 13.886501 -5.984777 -2.736819 -10.176230 7.199512 0.003387 3.156509 4.157517 9.751773 -2.871869 2.951608 4.628278 2.147073 4.131036 -1.118558 9.998104 0.033630 -12.527372 5.719494 1.004844 -10.349045 -6.659697 -13.024196 -8.192293 -27.925984 -17.526704 11.963206 63.627971 -76.624450 -64.053767 4.297142 -13.126630 -38.745703 -0.204367 2.223647 2.952679 -11.523834 28.068416 -11.905848 -0.685004 40.420241 -8.379782 5.363092 62.767515 -4.172100 1.483568 6.194178 -19.538673 -0.236068 1.632930 -0.396048 
-0.179989 -0.033440 0.120691 171.793753 17.528834 -8.517487 6.913719 -0.556710 -8.223349 -6.402400 -7.283956 -0.514463 -6.738519 6.418098 -5.943759 11.788718 10.743242 -0.257916 -8.021458 -6.045920 -0.359357 5.793835 6.541902 9.332782 13.294684 -6.339938 -4.427335 -9.694909 7.365864 0.442079 2.823347 4.667839 8.889872 -3.167939 2.770428 4.149512 1.810481 4.327895 -1.524436 7.898079 1.625086 -13.280356 4.746967 1.128733 -10.157899 -6.029023 -15.336803 -9.068085 -27.003422 -20.262408 10.471496 38.609253 -72.199705 -39.135485 1.663322 -12.863554 -34.582867 0.045464 2.073640 3.241651 -9.785662 28.884330 -11.184912 1.376887 39.532435 -8.361869 4.517968 53.587583 -4.998282 3.887382 5.336715 -16.079392 -0.352468 1.855470 -0.337922 
